# xmcd CD database file
#
# Track frame offsets:
#	150
#	14108
#	31419
#	42924
#	57969
#	70314
#	83741
#	97904
#	106700
#	121077
#	132686
#	144675
#	158316
#	174942
#	189929
#	204229
#
# Disc length: 2907 seconds
#
# Revision: 0
# Processed by: cddbd v1.5.1PL0 Copyright (c) Steve Scherf et al.
# Submitted via: CDex 1.51
#
DISCID=cc0b5910
DTITLE=Jimmy Dorsey - The Great Big Band Collection [Joan #7157, 2002]
DYEAR=1900
DGENRE=Jazz
TTITLE0=Flight of the Jitterbug
TTITLE1=Imagination
TTITLE2=Julia
TTITLE3=Fools Rush In
TTITLE4=I'm Steppin' Out With a Memory Tonight
TTITLE5=Let There Be Love
TTITLE6=Bkue Lou
TTITLE7=Contrasts
TTITLE8=Hep-Tee-Hootie
TTITLE9=Blueberry Hill
TTITLE10=Moonlight On the River
TTITLE11=All This and Heaven Too
TTITLE12=The Nearness of You
TTITLE13=While the Music Plays On
TTITLE14=Dolomite
TTITLE15=Only a Rose
EXTD=
EXTT0=
EXTT1=
EXTT2=
EXTT3=
EXTT4=
EXTT5=
EXTT6=
EXTT7=
EXTT8=
EXTT9=
EXTT10=
EXTT11=
EXTT12=
EXTT13=
EXTT14=
EXTT15=
PLAYORDER=
